<svg width="426" height="127" viewBox="0 0 426 127" fill="none" xmlns="http://www.w3.org/2000/svg">
<path d="M51.845 93.8431V103.5H20.876L8 96.0631V54.8821L20.876 47.4451H38.969L51.845 54.8821V79.5241H18.767V93.8431H51.845ZM18.767 57.1021V69.8671H41.078V57.1021H18.767Z" fill="white"/>
<path d="M56.2503 90.5001V32.8H61.8003H67.3503V66.8701H67.5723L101.871 25.8H115.191L84.6663 62.097L118.743 103.5H105.201L77.8953 70.0891L67.3503 82.6321V90.5001H56.2503Z" fill="white"/>
<path d="M56.2503 93.8431H67.5723V103.5H56.2503V93.8431Z" fill="white"/>
<path d="M56.2503 32.8H67.3503L61.8003 25L56.2503 32.8Z" fill="white"/>
<path d="M177.265 97.118L164.389 104.555H131.866L118.99 97.118V33.182L131.866 25.745H164.389L177.265 33.182V97.118ZM130.09 35.735V94.565H166.165V35.735H130.09ZM182.824 62.93V33.182L195.7 25.745H221.563L234.439 33.182V44.615H223.339V35.735H193.924V59.267H221.563L234.439 66.704V97.118L221.563 104.555H194.59L181.714 97.118V85.685H192.814V94.565H223.339V70.367H195.7L182.824 62.93ZM298.212 97.118L285.336 104.555H252.813L239.937 97.118V33.182L252.813 25.745H285.336L298.212 33.182V97.118ZM251.037 35.735V94.565H287.112V35.735H251.037ZM331.631 73.031H314.87V104H303.77V26.3H343.619L356.495 33.737V65.594L343.619 73.031L361.49 104H349.169L331.631 73.031ZM314.87 36.29V63.041H345.395V36.29H314.87ZM395.82 26.3L423.57 104H412.692L406.143 85.574H371.733L365.184 104H354.306L382.056 26.3H395.82ZM388.827 37.289L375.285 75.584H402.591L389.049 37.289H388.827Z" fill="white"/>
</svg>
